<svg width="309" height="146" viewBox="0 0 309 146" fill="none" xmlns="http://www.w3.org/2000/svg">
<rect x="54.1807" y="94.2202" width="200.195" height="41.7799" rx="9.28442" fill="#FAFAFA"/>
<rect x="61.1436" y="101.184" width="27.8533" height="27.8533" rx="6.96332" fill="#ECECEC"/>
<circle cx="75.0725" cy="112.209" r="2.90138" stroke="#D4D4D4" stroke-width="1.16055"/>
<path d="M79.7131 121.493C79.7131 118.929 77.6347 116.851 75.0709 116.851C72.5071 116.851 70.4287 118.929 70.4287 121.493" stroke="#D4D4D4" stroke-width="1.16055"/>
<path d="M97.1081 117.61H96.1619L98.2881 111.702H99.318L101.444 117.61H100.498L98.8275 112.775H98.7814L97.1081 117.61ZM97.2668 115.297H100.336V116.047H97.2668V115.297ZM105.069 115.023V115.77H102.669V115.023H105.069ZM102.911 113.179V117.61H102.066V113.179H102.911ZM105.672 113.179V117.61H104.829V113.179H105.672ZM109.306 117.61V113.915H108.244C107.992 113.915 107.796 113.973 107.656 114.091C107.515 114.208 107.445 114.362 107.445 114.552C107.445 114.741 107.509 114.893 107.638 115.008C107.769 115.122 107.952 115.178 108.186 115.178H109.557V115.877H108.186C107.86 115.877 107.577 115.823 107.338 115.715C107.102 115.605 106.919 115.451 106.79 115.251C106.663 115.05 106.6 114.814 106.6 114.541C106.6 114.262 106.665 114.022 106.796 113.82C106.929 113.616 107.118 113.458 107.364 113.346C107.612 113.235 107.906 113.179 108.244 113.179H110.116V117.61H109.306ZM106.398 117.61L107.647 115.372H108.53L107.281 117.61H106.398Z" fill="#D4D4D4"/>
<rect x="226.522" y="104.665" width="20.8899" height="20.8899" rx="10.445" fill="#ECECEC"/>
<path d="M240.282 114.591C240.709 114.805 240.709 115.415 240.282 115.629L235.196 118.172C234.81 118.365 234.356 118.084 234.356 117.653L234.356 112.567C234.356 112.136 234.81 111.855 235.196 112.048L240.282 114.591Z" fill="#D4D4D4"/>
<rect x="32.0908" y="56.9424" width="242.996" height="50.7122" rx="11.2694" fill="#FAFAFA"/>
<rect x="40.543" y="65.3945" width="33.8081" height="33.8081" rx="8.45203" fill="#ECECEC"/>
<circle cx="57.4477" cy="78.7768" r="3.52168" stroke="#D4D4D4" stroke-width="1.40867"/>
<path d="M63.0828 90.0463C63.0828 86.9344 60.5601 84.4116 57.4482 84.4116C54.3362 84.4116 51.8135 86.9344 51.8135 90.0463" stroke="#D4D4D4" stroke-width="1.40867"/>
<path d="M83.0479 87.5322V84.8814H83.5206C83.6817 84.746 83.8322 84.5534 83.9723 84.3036C84.1124 84.0538 84.2314 83.7165 84.3295 83.2916C84.4275 82.8668 84.4952 82.3217 84.5326 81.6564L84.7006 78.6274H89.1232V84.8814H89.9356V87.5216H88.8991V85.7988H84.0843V87.5322H83.0479ZM84.7952 84.8814H88.0868V79.5589H85.6811L85.5691 81.6564C85.5387 82.1629 85.4885 82.6181 85.4185 83.022C85.3508 83.4259 85.2632 83.783 85.1559 84.0935C85.0508 84.4017 84.9306 84.6643 84.7952 84.8814ZM91.8657 84.3316L94.2363 80.4203H95.3638V85.7988H94.3379V81.884L91.9777 85.7988H90.8397V80.4203H91.8657V84.3316ZM99.5927 84.5032L101.33 80.4203H102.233L99.9814 85.7988H99.2041L96.998 80.4203H97.8909L99.5927 84.5032ZM97.6003 80.4203V85.7988H96.5743V80.4203H97.6003ZM101.613 85.7988V80.4203H102.632V85.7988H101.613ZM105.396 85.9179C105.055 85.9179 104.747 85.8549 104.471 85.7288C104.196 85.6004 103.977 85.4148 103.816 85.172C103.658 84.9292 103.578 84.6316 103.578 84.2791C103.578 83.9756 103.637 83.7258 103.753 83.5297C103.87 83.3337 104.028 83.1784 104.226 83.064C104.425 82.9496 104.646 82.8633 104.891 82.8049C105.137 82.7465 105.386 82.7022 105.641 82.6718C105.963 82.6345 106.224 82.6041 106.425 82.5808C106.626 82.5551 106.772 82.5143 106.863 82.4582C106.954 82.4022 106.999 82.3112 106.999 82.1851V82.1606C106.999 81.8548 106.913 81.6178 106.74 81.4498C106.57 81.2817 106.315 81.1976 105.977 81.1976C105.624 81.1976 105.347 81.2758 105.144 81.4322C104.943 81.5863 104.804 81.7579 104.727 81.947L103.743 81.7229C103.86 81.3961 104.03 81.1323 104.254 80.9315C104.481 80.7284 104.741 80.5813 105.035 80.4903C105.329 80.3969 105.638 80.3502 105.963 80.3502C106.178 80.3502 106.405 80.3759 106.646 80.4273C106.889 80.4763 107.115 80.5673 107.325 80.7004C107.537 80.8335 107.711 81.0237 107.847 81.2712C107.982 81.5163 108.05 81.8349 108.05 82.2271V85.7988H107.027V85.0635H106.985C106.918 85.1989 106.816 85.3319 106.681 85.4627C106.545 85.5934 106.371 85.7019 106.159 85.7883C105.947 85.8747 105.692 85.9179 105.396 85.9179ZM105.623 85.0775C105.913 85.0775 106.16 85.0203 106.366 84.9059C106.573 84.7915 106.731 84.6421 106.838 84.4577C106.948 84.2709 107.003 84.0713 107.003 83.8589V83.1656C106.966 83.2029 106.893 83.2379 106.786 83.2706C106.681 83.301 106.561 83.3278 106.425 83.3512C106.29 83.3722 106.158 83.392 106.029 83.4107C105.901 83.427 105.794 83.441 105.707 83.4527C105.504 83.4784 105.319 83.5216 105.151 83.5823C104.985 83.643 104.852 83.7305 104.751 83.8449C104.653 83.957 104.604 84.1064 104.604 84.2931C104.604 84.5522 104.7 84.7483 104.891 84.8814C105.083 85.0121 105.327 85.0775 105.623 85.0775Z" fill="#D4D4D4"/>
<rect x="241.278" y="69.6206" width="25.3561" height="25.3561" rx="12.678" fill="#ECECEC"/>
<path d="M257.979 81.6688C258.498 81.9284 258.498 82.6692 257.979 82.9287L251.806 86.0151C251.338 86.2493 250.787 85.9087 250.787 85.3851L250.787 79.2124C250.787 78.6888 251.338 78.3483 251.806 78.5824L257.979 81.6688Z" fill="#D4D4D4"/>
<rect x="10" y="10" width="288.101" height="60.1254" rx="13.3612" fill="#FAFAFA"/>
<rect x="20.0215" y="20.021" width="40.0836" height="40.0836" rx="10.0209" fill="#ECECEC"/>
<circle cx="40.0632" cy="35.8874" r="4.17538" stroke="#D4D4D4" stroke-width="1.67015"/>
<path d="M46.744 49.2485C46.744 45.5589 43.753 42.5679 40.0634 42.5679C36.3738 42.5679 33.3828 45.5589 33.3828 49.2485" stroke="#D4D4D4" stroke-width="1.67015"/>
<path d="M71.7783 44.563H70.4166L73.4764 36.0604H74.9585L78.0183 44.563H76.6565L74.2527 37.6048H74.1863L71.7783 44.563ZM72.0067 41.2334H76.424V42.3128H72.0067V41.2334ZM78.4103 44.563L78.4062 43.4877H78.6345C78.8116 43.4877 78.9597 43.4503 79.0787 43.3756C79.2005 43.2981 79.3001 43.168 79.3776 42.9854C79.4551 42.8027 79.5146 42.5508 79.5562 42.2298C79.5977 41.9059 79.6281 41.4991 79.6475 41.0092L79.7596 38.1861H84.2102V44.563H82.9937V39.2572H80.9096L80.81 41.4243C80.7851 41.9502 80.7311 42.4097 80.648 42.8027C80.5678 43.1957 80.4502 43.5237 80.2952 43.7866C80.1402 44.0468 79.9409 44.2419 79.6973 44.372C79.4538 44.4993 79.1576 44.563 78.8089 44.563H78.4103ZM88.3802 44.6917C87.7519 44.6917 87.2108 44.5575 86.7569 44.289C86.3058 44.0177 85.957 43.6372 85.7107 43.1473C85.4671 42.6546 85.3454 42.0775 85.3454 41.416C85.3454 40.7628 85.4671 40.1871 85.7107 39.6889C85.957 39.1908 86.3002 38.8019 86.7403 38.5223C87.1831 38.2428 87.7007 38.103 88.293 38.103C88.6528 38.103 89.0016 38.1625 89.3392 38.2815C89.6769 38.4006 89.98 38.5874 90.2485 38.842C90.5169 39.0966 90.7287 39.4274 90.8837 39.8343C91.0387 40.2384 91.1161 40.7296 91.1161 41.3081V41.7482H86.047V40.8182H89.8997C89.8997 40.4916 89.8333 40.2024 89.7004 39.9505C89.5676 39.6959 89.3808 39.4952 89.14 39.3485C88.9019 39.2018 88.6224 39.1285 88.3013 39.1285C87.9526 39.1285 87.6481 39.2143 87.388 39.3859C87.1306 39.5547 86.9313 39.7761 86.7901 40.0501C86.6517 40.3214 86.5825 40.6162 86.5825 40.9344V41.661C86.5825 42.0872 86.6573 42.4498 86.8067 42.7487C86.959 43.0476 87.1707 43.276 87.4419 43.4337C87.7132 43.5887 88.0301 43.6662 88.3927 43.6662C88.6279 43.6662 88.8424 43.633 89.0362 43.5666C89.2299 43.4974 89.3974 43.395 89.5385 43.2594C89.6797 43.1237 89.7876 42.9563 89.8623 42.757L91.0373 42.9688C90.9432 43.3147 90.7743 43.6178 90.5308 43.878C90.29 44.1354 89.9869 44.336 89.6216 44.48C89.259 44.6211 88.8452 44.6917 88.3802 44.6917ZM92.2596 44.563V38.1861H93.501V40.8597H94.0988L96.2037 38.1861H97.7398L95.2696 41.2873L97.7689 44.563H96.2286L94.3064 42.0139H93.501V44.563H92.2596ZM100.923 44.6917C100.306 44.6917 99.7742 44.5519 99.3286 44.2724C98.8857 43.9901 98.5453 43.6012 98.3073 43.1058C98.0692 42.6103 97.9502 42.0429 97.9502 41.4036C97.9502 40.7559 98.072 40.1844 98.3156 39.6889C98.5591 39.1908 98.9023 38.8019 99.3452 38.5223C99.788 38.2428 100.31 38.103 100.91 38.103C101.395 38.103 101.826 38.193 102.206 38.3729C102.585 38.55 102.891 38.7991 103.123 39.1202C103.358 39.4412 103.498 39.8163 103.542 40.2453H102.334C102.268 39.9464 102.116 39.6889 101.878 39.4731C101.642 39.2572 101.327 39.1492 100.931 39.1492C100.585 39.1492 100.282 39.2406 100.022 39.4232C99.7645 39.6031 99.5638 39.8606 99.4199 40.1955C99.276 40.5276 99.204 40.9206 99.204 41.3745C99.204 41.8395 99.2746 42.2408 99.4158 42.5785C99.5569 42.9162 99.7562 43.1777 100.014 43.3632C100.274 43.5486 100.58 43.6413 100.931 43.6413C101.166 43.6413 101.379 43.5984 101.57 43.5126C101.764 43.4241 101.926 43.2981 102.056 43.1348C102.189 42.9715 102.282 42.775 102.334 42.5453H103.542C103.498 42.9577 103.364 43.3258 103.14 43.6496C102.916 43.9735 102.615 44.2281 102.239 44.4135C101.865 44.599 101.427 44.6917 100.923 44.6917Z" fill="#D4D4D4"/>
<rect x="258.018" y="25.0312" width="30.0627" height="30.0627" rx="15.0314" fill="#ECECEC"/>
<path d="M277.818 39.3158C278.434 39.6235 278.434 40.5019 277.818 40.8096L270.5 44.4689C269.944 44.7465 269.291 44.3427 269.291 43.722L269.291 36.4034C269.291 35.7826 269.944 35.3789 270.5 35.6565L277.818 39.3158Z" fill="#D4D4D4"/>
<defs>
<filter id="filter0_f_15_1133" x="0" y="0" width="308.101" height="146" filterUnits="userSpaceOnUse" color-interpolation-filters="sRGB">
<feFlood flood-opacity="0" result="BackgroundImageFix"/>
<feBlend mode="normal" in="SourceGraphic" in2="BackgroundImageFix" result="shape"/>
<feGaussianBlur stdDeviation="5" result="effect1_foregroundBlur_15_1133"/>
</filter>
</defs>
</svg>
